G04 EAGLE Gerber RS-274X export*
G75*
%MOMM*%
%FSLAX34Y34*%
%LPD*%
%IN*%
%IPPOS*%
%AMOC8*
5,1,8,0,0,1.08239X$1,22.5*%
G01*
%ADD10C,0.254000*%


D10*
X-266700Y-25400D02*
X415800Y-25400D01*
X415800Y647600D01*
X-266700Y647600D01*
X-266700Y-25400D01*
X13533Y20160D02*
X12664Y20084D01*
X11804Y19932D01*
X10960Y19706D01*
X10140Y19408D01*
X9348Y19039D01*
X8592Y18602D01*
X7877Y18101D01*
X7208Y17540D01*
X6590Y16922D01*
X6029Y16253D01*
X5528Y15538D01*
X5091Y14782D01*
X4722Y13990D01*
X4424Y13170D01*
X4198Y12326D01*
X4046Y11467D01*
X3970Y10597D01*
X3970Y9723D01*
X4046Y8854D01*
X4198Y7994D01*
X4424Y7150D01*
X4722Y6330D01*
X5091Y5538D01*
X5528Y4782D01*
X6029Y4067D01*
X6590Y3398D01*
X7208Y2780D01*
X7877Y2219D01*
X8592Y1718D01*
X9348Y1281D01*
X10140Y912D01*
X10960Y614D01*
X11804Y388D01*
X12664Y236D01*
X13533Y160D01*
X14407Y160D01*
X15277Y236D01*
X16136Y388D01*
X16980Y614D01*
X17800Y912D01*
X18592Y1281D01*
X19348Y1718D01*
X20063Y2219D01*
X20732Y2780D01*
X21350Y3398D01*
X21911Y4067D01*
X22412Y4782D01*
X22849Y5538D01*
X23218Y6330D01*
X23516Y7150D01*
X23742Y7994D01*
X23894Y8854D01*
X23970Y9723D01*
X23970Y10597D01*
X23894Y11467D01*
X23742Y12326D01*
X23516Y13170D01*
X23218Y13990D01*
X22849Y14782D01*
X22412Y15538D01*
X21911Y16253D01*
X21350Y16922D01*
X20732Y17540D01*
X20063Y18101D01*
X19348Y18602D01*
X18592Y19039D01*
X17800Y19408D01*
X16980Y19706D01*
X16136Y19932D01*
X15277Y20084D01*
X14407Y20160D01*
X13533Y20160D01*
X13533Y228440D02*
X12664Y228364D01*
X11804Y228212D01*
X10960Y227986D01*
X10140Y227688D01*
X9348Y227319D01*
X8592Y226882D01*
X7877Y226381D01*
X7208Y225820D01*
X6590Y225202D01*
X6029Y224533D01*
X5528Y223818D01*
X5091Y223062D01*
X4722Y222270D01*
X4424Y221450D01*
X4198Y220606D01*
X4046Y219747D01*
X3970Y218877D01*
X3970Y218003D01*
X4046Y217134D01*
X4198Y216274D01*
X4424Y215430D01*
X4722Y214610D01*
X5091Y213818D01*
X5528Y213062D01*
X6029Y212347D01*
X6590Y211678D01*
X7208Y211060D01*
X7877Y210499D01*
X8592Y209998D01*
X9348Y209561D01*
X10140Y209192D01*
X10960Y208894D01*
X11804Y208668D01*
X12664Y208516D01*
X13533Y208440D01*
X14407Y208440D01*
X15277Y208516D01*
X16136Y208668D01*
X16980Y208894D01*
X17800Y209192D01*
X18592Y209561D01*
X19348Y209998D01*
X20063Y210499D01*
X20732Y211060D01*
X21350Y211678D01*
X21911Y212347D01*
X22412Y213062D01*
X22849Y213818D01*
X23218Y214610D01*
X23516Y215430D01*
X23742Y216274D01*
X23894Y217134D01*
X23970Y218003D01*
X23970Y218877D01*
X23894Y219747D01*
X23742Y220606D01*
X23516Y221450D01*
X23218Y222270D01*
X22849Y223062D01*
X22412Y223818D01*
X21911Y224533D01*
X21350Y225202D01*
X20732Y225820D01*
X20063Y226381D01*
X19348Y226882D01*
X18592Y227319D01*
X17800Y227688D01*
X16980Y227986D01*
X16136Y228212D01*
X15277Y228364D01*
X14407Y228440D01*
X13533Y228440D01*
X-217607Y228440D02*
X-218477Y228364D01*
X-219336Y228212D01*
X-220180Y227986D01*
X-221000Y227688D01*
X-221792Y227319D01*
X-222548Y226882D01*
X-223263Y226381D01*
X-223932Y225820D01*
X-224550Y225202D01*
X-225111Y224533D01*
X-225612Y223818D01*
X-226049Y223062D01*
X-226418Y222270D01*
X-226716Y221450D01*
X-226942Y220606D01*
X-227094Y219747D01*
X-227170Y218877D01*
X-227170Y218003D01*
X-227094Y217134D01*
X-226942Y216274D01*
X-226716Y215430D01*
X-226418Y214610D01*
X-226049Y213818D01*
X-225612Y213062D01*
X-225111Y212347D01*
X-224550Y211678D01*
X-223932Y211060D01*
X-223263Y210499D01*
X-222548Y209998D01*
X-221792Y209561D01*
X-221000Y209192D01*
X-220180Y208894D01*
X-219336Y208668D01*
X-218477Y208516D01*
X-217607Y208440D01*
X-216733Y208440D01*
X-215864Y208516D01*
X-215004Y208668D01*
X-214160Y208894D01*
X-213340Y209192D01*
X-212548Y209561D01*
X-211792Y209998D01*
X-211077Y210499D01*
X-210408Y211060D01*
X-209790Y211678D01*
X-209229Y212347D01*
X-208728Y213062D01*
X-208291Y213818D01*
X-207922Y214610D01*
X-207624Y215430D01*
X-207398Y216274D01*
X-207246Y217134D01*
X-207170Y218003D01*
X-207170Y218877D01*
X-207246Y219747D01*
X-207398Y220606D01*
X-207624Y221450D01*
X-207922Y222270D01*
X-208291Y223062D01*
X-208728Y223818D01*
X-209229Y224533D01*
X-209790Y225202D01*
X-210408Y225820D01*
X-211077Y226381D01*
X-211792Y226882D01*
X-212548Y227319D01*
X-213340Y227688D01*
X-214160Y227986D01*
X-215004Y228212D01*
X-215864Y228364D01*
X-216733Y228440D01*
X-217607Y228440D01*
X-217607Y20160D02*
X-218477Y20084D01*
X-219336Y19932D01*
X-220180Y19706D01*
X-221000Y19408D01*
X-221792Y19039D01*
X-222548Y18602D01*
X-223263Y18101D01*
X-223932Y17540D01*
X-224550Y16922D01*
X-225111Y16253D01*
X-225612Y15538D01*
X-226049Y14782D01*
X-226418Y13990D01*
X-226716Y13170D01*
X-226942Y12326D01*
X-227094Y11467D01*
X-227170Y10597D01*
X-227170Y9723D01*
X-227094Y8854D01*
X-226942Y7994D01*
X-226716Y7150D01*
X-226418Y6330D01*
X-226049Y5538D01*
X-225612Y4782D01*
X-225111Y4067D01*
X-224550Y3398D01*
X-223932Y2780D01*
X-223263Y2219D01*
X-222548Y1718D01*
X-221792Y1281D01*
X-221000Y912D01*
X-220180Y614D01*
X-219336Y388D01*
X-218477Y236D01*
X-217607Y160D01*
X-216733Y160D01*
X-215864Y236D01*
X-215004Y388D01*
X-214160Y614D01*
X-213340Y912D01*
X-212548Y1281D01*
X-211792Y1718D01*
X-211077Y2219D01*
X-210408Y2780D01*
X-209790Y3398D01*
X-209229Y4067D01*
X-208728Y4782D01*
X-208291Y5538D01*
X-207922Y6330D01*
X-207624Y7150D01*
X-207398Y7994D01*
X-207246Y8854D01*
X-207170Y9723D01*
X-207170Y10597D01*
X-207246Y11467D01*
X-207398Y12326D01*
X-207624Y13170D01*
X-207922Y13990D01*
X-208291Y14782D01*
X-208728Y15538D01*
X-209229Y16253D01*
X-209790Y16922D01*
X-210408Y17540D01*
X-211077Y18101D01*
X-211792Y18602D01*
X-212548Y19039D01*
X-213340Y19408D01*
X-214160Y19706D01*
X-215004Y19932D01*
X-215864Y20084D01*
X-216733Y20160D01*
X-217607Y20160D01*
M02*
