G04 EAGLE Gerber RS-274X export*
G75*
%MOMM*%
%FSLAX34Y34*%
%LPD*%
%INSoldermask Top*%
%IPPOS*%
%AMOC8*
5,1,8,0,0,1.08239X$1,22.5*%
G01*
%ADD10C,1.625600*%
%ADD11C,1.473200*%
%ADD12C,1.879600*%
%ADD13P,1.649562X8X202.500000*%
%ADD14C,1.676400*%
%ADD15C,1.727200*%
%ADD16C,2.082800*%
%ADD17R,1.853200X1.853200*%
%ADD18C,1.853200*%
%ADD19P,1.649562X8X112.500000*%
%ADD20R,1.711200X1.711200*%
%ADD21C,1.711200*%
%ADD22C,2.203200*%
%ADD23P,1.649562X8X292.500000*%
%ADD24C,0.959600*%


D10*
X63500Y348488D02*
X63500Y362712D01*
X88900Y362712D02*
X88900Y348488D01*
X-241300Y411988D02*
X-241300Y426212D01*
X-215900Y426212D02*
X-215900Y411988D01*
D11*
X-190754Y571500D03*
X-139954Y571500D03*
X-114554Y571500D03*
X-89154Y571500D03*
X-63754Y571500D03*
X-63754Y622300D03*
X-89154Y622300D03*
X-114554Y622300D03*
X-139954Y622300D03*
X-190754Y622300D03*
D12*
X-114300Y444500D03*
X-114300Y342900D03*
X-76200Y444500D03*
X-76200Y342900D03*
X-190500Y444500D03*
X-190500Y342900D03*
X-152400Y444500D03*
X-152400Y342900D03*
D10*
X-241300Y348488D02*
X-241300Y362712D01*
X-215900Y362712D02*
X-215900Y348488D01*
D11*
X-62992Y533400D03*
X-113792Y533400D03*
X-139192Y533400D03*
X-164592Y533400D03*
X-189992Y533400D03*
X-189992Y482600D03*
X-164592Y482600D03*
X-139192Y482600D03*
X-113792Y482600D03*
X-62992Y482600D03*
D13*
X88900Y584200D03*
X12700Y584200D03*
X88900Y609600D03*
X12700Y609600D03*
X88900Y533400D03*
X12700Y533400D03*
X88900Y558800D03*
X12700Y558800D03*
D10*
X12700Y362712D02*
X12700Y348488D01*
X38100Y348488D02*
X38100Y362712D01*
D14*
X266700Y50800D03*
X266700Y76200D03*
X266700Y101600D03*
X266700Y127000D03*
X266700Y152400D03*
X266700Y177800D03*
X266700Y203200D03*
X266700Y228600D03*
X266700Y254000D03*
X266700Y279400D03*
X266700Y304800D03*
X266700Y330200D03*
X114300Y330200D03*
X114300Y304800D03*
X114300Y279400D03*
X114300Y254000D03*
X114300Y228600D03*
X114300Y203200D03*
X114300Y177800D03*
X114300Y152400D03*
X114300Y127000D03*
X114300Y101600D03*
X114300Y76200D03*
X266700Y25400D03*
X114300Y50800D03*
X114300Y25400D03*
X266700Y0D03*
X114300Y0D03*
X266700Y355600D03*
X114300Y355600D03*
X266700Y381000D03*
X266700Y406400D03*
X266700Y431800D03*
X266700Y457200D03*
X266700Y482600D03*
X266700Y508000D03*
X266700Y533400D03*
X266700Y558800D03*
X266700Y584200D03*
X114300Y584200D03*
X114300Y558800D03*
X114300Y533400D03*
X114300Y508000D03*
X114300Y482600D03*
X114300Y457200D03*
X114300Y431800D03*
X114300Y406400D03*
X114300Y381000D03*
X241300Y457200D03*
X190500Y457200D03*
X165100Y457200D03*
X215900Y457200D03*
X139700Y457200D03*
X139700Y25400D03*
X139700Y76200D03*
X139700Y101600D03*
X139700Y127000D03*
X234950Y63500D03*
X234950Y88900D03*
X234950Y114300D03*
X234950Y139700D03*
X234950Y165100D03*
D15*
X33020Y495300D02*
X17780Y495300D01*
X17780Y469900D02*
X33020Y469900D01*
X33020Y444500D02*
X17780Y444500D01*
X17780Y419100D02*
X33020Y419100D01*
X68580Y495300D02*
X83820Y495300D01*
X83820Y469900D02*
X68580Y469900D01*
X68580Y444500D02*
X83820Y444500D01*
X83820Y419100D02*
X68580Y419100D01*
D16*
X75819Y304800D03*
X75819Y279400D03*
X75819Y254000D03*
X75819Y228600D03*
X75819Y203200D03*
X75819Y177800D03*
X75819Y152400D03*
X75819Y127000D03*
D17*
X-228600Y292100D03*
D18*
X-203200Y292100D03*
D17*
X-101600Y292100D03*
D18*
X-76200Y292100D03*
D17*
X-38100Y292100D03*
D18*
X-12700Y292100D03*
D17*
X-165100Y292100D03*
D18*
X-139700Y292100D03*
D19*
X-25400Y546100D03*
X-25400Y495300D03*
X-25400Y520700D03*
X-25400Y469900D03*
X-25400Y419100D03*
X-25400Y444500D03*
X-25400Y393700D03*
X-25400Y342900D03*
X-25400Y368300D03*
X-25400Y622300D03*
X-25400Y571500D03*
X-25400Y596900D03*
D20*
X25400Y76200D03*
D21*
X25400Y101600D03*
X25400Y127000D03*
X25400Y152400D03*
D22*
X13970Y10160D03*
X13970Y218440D03*
X-217170Y218440D03*
X-217170Y10160D03*
D19*
X-228600Y584200D03*
X-228600Y609600D03*
D23*
X-228600Y558800D03*
X-228600Y482600D03*
D17*
X304800Y508000D03*
D18*
X304800Y533400D03*
D17*
X304800Y558800D03*
D18*
X304800Y584200D03*
D17*
X342900Y0D03*
D18*
X342900Y25400D03*
D17*
X342900Y342900D03*
D18*
X342900Y317500D03*
D17*
X342900Y279400D03*
D18*
X342900Y254000D03*
D17*
X342900Y88900D03*
D18*
X342900Y63500D03*
D17*
X342900Y190500D03*
D18*
X342900Y215900D03*
D17*
X342900Y127000D03*
D18*
X342900Y152400D03*
D17*
X368300Y508000D03*
D18*
X368300Y533400D03*
D17*
X368300Y571500D03*
D18*
X368300Y596900D03*
D17*
X342900Y469900D03*
D18*
X342900Y444500D03*
D17*
X342900Y406400D03*
D18*
X342900Y381000D03*
D24*
X50800Y381000D03*
X63500Y330200D03*
X-89154Y622300D03*
X-165100Y520700D03*
X-190500Y457200D03*
X-165100Y457200D03*
X-204188Y444500D03*
X-101600Y622300D03*
X-101600Y596900D03*
X12700Y520700D03*
X38100Y520700D03*
X101600Y520700D03*
X165100Y495300D03*
X25400Y546100D03*
X-12700Y457200D03*
X63500Y527530D03*
X50800Y508000D03*
X38100Y432026D03*
X63500Y406174D03*
X0Y406400D03*
X152400Y393700D03*
X127000Y546100D03*
X152400Y520700D03*
X228600Y546100D03*
X215900Y508000D03*
X76200Y88900D03*
X88900Y76200D03*
X101600Y114300D03*
X88900Y25400D03*
X177800Y330200D03*
X228600Y330200D03*
X241300Y266700D03*
X279400Y266700D03*
X203200Y50800D03*
X254000Y63500D03*
X279400Y139700D03*
X101600Y571500D03*
X139700Y546100D03*
X203200Y533400D03*
X215900Y520700D03*
X165100Y469900D03*
X228600Y444500D03*
X292100Y393700D03*
M02*
