G04 EAGLE Gerber RS-274X export*
G75*
%MOMM*%
%FSLAX34Y34*%
%LPD*%
%INTop Copper*%
%IPPOS*%
%AMOC8*
5,1,8,0,0,1.08239X$1,22.5*%
G01*
%ADD10C,1.270000*%
%ADD11P,1.429621X8X292.500000*%
%ADD12C,1.473200*%
%ADD13C,1.524000*%
%ADD14R,1.650000X1.650000*%
%ADD15C,1.650000*%
%ADD16R,1.508000X1.508000*%
%ADD17C,1.508000*%
%ADD18C,0.304800*%
%ADD19C,0.756400*%


D10*
X139700Y-254D03*
X139700Y50546D03*
X139700Y75946D03*
X139700Y101346D03*
X139700Y126746D03*
X88900Y126746D03*
X88900Y101346D03*
X88900Y75946D03*
X88900Y50546D03*
X88900Y-254D03*
X139700Y-178308D03*
X139700Y-127508D03*
X139700Y-102108D03*
X139700Y-76708D03*
X139700Y-51308D03*
X88900Y-51308D03*
X88900Y-76708D03*
X88900Y-102108D03*
X88900Y-127508D03*
X88900Y-178308D03*
D11*
X76200Y241300D03*
X76200Y165100D03*
X165100Y342900D03*
X165100Y266700D03*
X165100Y241300D03*
X165100Y165100D03*
X76200Y342900D03*
X76200Y266700D03*
D12*
X25400Y-190500D03*
X25400Y-165100D03*
X25400Y-139700D03*
X25400Y-114300D03*
X25400Y-88900D03*
X25400Y-63500D03*
X25400Y-38100D03*
X25400Y-12700D03*
X25400Y12700D03*
X25400Y38100D03*
X25400Y63500D03*
X25400Y88900D03*
X-127000Y88900D03*
X-127000Y63500D03*
X-127000Y38100D03*
X-127000Y12700D03*
X-127000Y-12700D03*
X-127000Y-38100D03*
X-127000Y-63500D03*
X-127000Y-88900D03*
X-127000Y-114300D03*
X-127000Y-139700D03*
X-127000Y-165100D03*
X25400Y-215900D03*
X-127000Y-190500D03*
X-127000Y-215900D03*
X25400Y-241300D03*
X-127000Y-241300D03*
X25400Y114300D03*
X-127000Y114300D03*
X25400Y139700D03*
X25400Y165100D03*
X25400Y190500D03*
X25400Y215900D03*
X25400Y241300D03*
X25400Y266700D03*
X25400Y292100D03*
X25400Y317500D03*
X25400Y342900D03*
X-127000Y342900D03*
X-127000Y317500D03*
X-127000Y292100D03*
X-127000Y266700D03*
X-127000Y241300D03*
X-127000Y215900D03*
X-127000Y190500D03*
X-127000Y165100D03*
X-127000Y139700D03*
X0Y215900D03*
X-50800Y215900D03*
X-76200Y215900D03*
X-25400Y215900D03*
X-101600Y215900D03*
X-101600Y-215900D03*
X-101600Y-165100D03*
X-101600Y-139700D03*
X-101600Y-114300D03*
X-6350Y-177800D03*
X-6350Y-152400D03*
X-6350Y-127000D03*
X-6350Y-101600D03*
X-6350Y-76200D03*
D13*
X233184Y-248256D02*
X243322Y-259635D01*
X262287Y-242738D02*
X252149Y-231359D01*
X271113Y-214462D02*
X281251Y-225841D01*
X300216Y-208944D02*
X290078Y-197565D01*
D14*
X-190500Y317500D03*
D15*
X-190500Y342900D03*
D14*
X-190500Y0D03*
D15*
X-190500Y25400D03*
D11*
X203200Y177800D03*
X203200Y228600D03*
X203200Y203200D03*
X114300Y177800D03*
X114300Y228600D03*
X114300Y203200D03*
X114300Y279400D03*
X114300Y330200D03*
X114300Y304800D03*
X203200Y279400D03*
X203200Y330200D03*
X203200Y304800D03*
X203200Y152400D03*
X203200Y76200D03*
D14*
X279400Y381000D03*
D15*
X279400Y406400D03*
D14*
X127000Y393700D03*
D15*
X152400Y393700D03*
D14*
X-190500Y-228600D03*
D15*
X-190500Y-254000D03*
D14*
X190500Y393700D03*
D15*
X215900Y393700D03*
D14*
X279400Y190500D03*
D15*
X279400Y215900D03*
D14*
X-190500Y-165100D03*
D15*
X-190500Y-190500D03*
D14*
X63500Y393700D03*
D15*
X88900Y393700D03*
D14*
X279400Y342900D03*
D15*
X279400Y317500D03*
D14*
X279400Y279400D03*
D15*
X279400Y254000D03*
D14*
X279400Y-76200D03*
D15*
X279400Y-50800D03*
D14*
X279400Y-12700D03*
D15*
X279400Y12700D03*
D14*
X279400Y50800D03*
D15*
X279400Y76200D03*
D14*
X-190500Y63500D03*
D15*
X-190500Y88900D03*
D14*
X-190500Y-63500D03*
D15*
X-190500Y-38100D03*
D14*
X-190500Y-127000D03*
D15*
X-190500Y-101600D03*
D14*
X-190500Y254000D03*
D15*
X-190500Y279400D03*
D14*
X-190500Y190500D03*
D15*
X-190500Y215900D03*
D14*
X-190500Y381000D03*
D15*
X-190500Y406400D03*
X203200Y-12700D03*
X203200Y-38100D03*
D14*
X203200Y38100D03*
D15*
X203200Y12700D03*
D16*
X203200Y-76200D03*
D17*
X203200Y-101600D03*
X203200Y-127000D03*
X203200Y-152400D03*
D14*
X-190500Y127000D03*
D15*
X-190500Y152400D03*
D14*
X279400Y127000D03*
D15*
X279400Y152400D03*
D14*
X76200Y-241300D03*
D15*
X101600Y-241300D03*
D14*
X139700Y-241300D03*
D15*
X165100Y-241300D03*
D14*
X279400Y-139700D03*
D15*
X279400Y-114300D03*
D18*
X-179202Y117488D02*
X-179202Y136513D01*
X-190500Y147811D02*
X-190500Y152400D01*
X-190500Y106190D02*
X-190500Y88900D01*
X-179202Y136513D02*
X-190500Y147811D01*
X-179202Y117488D02*
X-190500Y106190D01*
X-179202Y73013D02*
X-179202Y53988D01*
X-190500Y84311D02*
X-190500Y88900D01*
X-190500Y42690D02*
X-190500Y25400D01*
X-179202Y73013D02*
X-190500Y84311D01*
X-179202Y53988D02*
X-190500Y42690D01*
X-179202Y9513D02*
X-179202Y-9513D01*
X-190500Y20811D02*
X-190500Y25400D01*
X-190500Y-20811D02*
X-190500Y-38100D01*
X-179202Y9513D02*
X-190500Y20811D01*
X-179202Y-9513D02*
X-190500Y-20811D01*
X-179202Y-53988D02*
X-179202Y-73013D01*
X-190500Y-42690D02*
X-190500Y-38100D01*
X-190500Y-84311D02*
X-190500Y-101600D01*
X-179202Y-53988D02*
X-190500Y-42690D01*
X-179202Y-73013D02*
X-190500Y-84311D01*
X88900Y75946D02*
X114300Y50546D01*
X114300Y32230D01*
D19*
X114300Y32230D03*
X114300Y-5870D03*
X127000Y-76200D03*
D18*
X114300Y-19188D02*
X114300Y-5870D01*
X107470Y-66329D02*
X111471Y-70330D01*
X121130Y-70330D02*
X127000Y-76200D01*
X121130Y-70330D02*
X111471Y-70330D01*
X107470Y-26018D02*
X114300Y-19188D01*
X107470Y-26018D02*
X107470Y-66329D01*
X192612Y-116412D02*
X207586Y-116412D01*
X254000Y-162826D02*
X254000Y-165100D01*
D19*
X254000Y-165100D03*
D18*
X254000Y-162826D02*
X207586Y-116412D01*
D19*
X152400Y-101600D03*
D18*
X177800Y-101600D01*
X192612Y-116412D01*
X50800Y-88900D02*
X25400Y-114300D01*
X50800Y-88900D02*
X50800Y-63500D01*
D19*
X50800Y-63500D03*
X63500Y-38100D03*
D18*
X63500Y18570D01*
D19*
X63500Y18570D03*
X63500Y38100D03*
D18*
X63500Y76200D01*
X71370Y84070D01*
D19*
X71370Y84070D03*
X88900Y88900D03*
D18*
X101854Y88900D02*
X139700Y126746D01*
X101854Y88900D02*
X88900Y88900D01*
X-179202Y371488D02*
X-179202Y390513D01*
X-190500Y360190D02*
X-190500Y342900D01*
X-179202Y390513D02*
X-190500Y401811D01*
X-179202Y371488D02*
X-190500Y360190D01*
X-179202Y327013D02*
X-179202Y307988D01*
X-190500Y338311D02*
X-190500Y342900D01*
X-190500Y296690D02*
X-190500Y279400D01*
X-179202Y327013D02*
X-190500Y338311D01*
X-179202Y307988D02*
X-190500Y296690D01*
X-179202Y263513D02*
X-179202Y244488D01*
X-190500Y274811D02*
X-190500Y279400D01*
X-190500Y233190D02*
X-190500Y215900D01*
X-179202Y263513D02*
X-190500Y274811D01*
X-179202Y244488D02*
X-190500Y233190D01*
X-190500Y215900D02*
X-137414Y162814D01*
X-137414Y160786D01*
X-129028Y152400D01*
X-12700Y152400D01*
X25400Y114300D01*
X76200Y266700D02*
X88900Y279400D01*
X114300Y279400D01*
X152400Y279400D01*
X203200Y177800D02*
X190500Y165100D01*
X165100Y165100D01*
X88900Y177800D02*
X76200Y165100D01*
X88900Y177800D02*
X114300Y177800D01*
X152400Y177800D01*
X165100Y165100D01*
X203200Y177800D02*
X203200Y189550D01*
X203200Y242250D02*
X203200Y279400D01*
X193548Y199202D02*
X203200Y189550D01*
X193548Y232598D02*
X203200Y242250D01*
X193548Y232598D02*
X193548Y199202D01*
X165100Y266700D02*
X152400Y279400D01*
X165100Y266700D02*
X177800Y279400D01*
X203200Y279400D01*
X203200Y-12700D02*
X215900Y-25400D01*
X215900Y-88900D01*
X203200Y-101600D01*
D19*
X152400Y-177800D03*
D18*
X203200Y-177800D01*
D19*
X203200Y-177800D03*
X216756Y38100D03*
D18*
X216756Y51656D01*
X241300Y76200D02*
X241300Y177800D01*
D19*
X241300Y177800D03*
D18*
X241300Y76200D02*
X216756Y51656D01*
X-190500Y401811D02*
X-190500Y406400D01*
X25400Y190500D02*
X127000Y190500D01*
X152400Y215900D01*
X152400Y228600D01*
X165100Y241300D01*
X114300Y203200D02*
X76200Y241300D01*
X50800Y215900D02*
X25400Y215900D01*
X50800Y215900D02*
X76200Y241300D01*
X165100Y342900D02*
X203200Y304800D01*
X76200Y317500D02*
X25400Y266700D01*
X76200Y317500D02*
X139700Y317500D01*
X165100Y342900D01*
X-114300Y-127000D02*
X-127000Y-139700D01*
X-114300Y-127000D02*
X-88900Y-127000D01*
X-50800Y-88900D01*
X-50800Y0D01*
X-25400Y25400D01*
X127000Y25400D01*
D19*
X127000Y25400D03*
X139700Y38100D03*
D18*
X165100Y38100D02*
X203200Y76200D01*
X165100Y38100D02*
X139700Y38100D01*
X50800Y63500D02*
X25400Y38100D01*
D19*
X50800Y63500D03*
X76200Y63500D03*
D18*
X76200Y38100D01*
D19*
X76200Y38100D03*
X101600Y12700D03*
D18*
X101600Y-101600D01*
X114300Y-114300D01*
X177800Y-114300D01*
D19*
X177800Y-114300D03*
X190500Y-139700D03*
D18*
X177800Y-152400D01*
D19*
X177800Y-165100D03*
D18*
X177800Y-152400D01*
D19*
X76200Y0D03*
D18*
X76200Y-38100D01*
D19*
X76200Y-38100D03*
X165100Y-159230D03*
D18*
X165100Y-139700D01*
D19*
X165100Y-139700D03*
D18*
X241300Y-190500D02*
X25400Y-190500D01*
X279400Y-118890D02*
X279400Y-114300D01*
X279400Y-118890D02*
X268102Y-130188D01*
X268102Y-163698D02*
X241300Y-190500D01*
X268102Y-163698D02*
X268102Y-130188D01*
X254000Y-233831D02*
X257218Y-237048D01*
D19*
X190500Y-215900D03*
D18*
X203200Y-228600D01*
X248769Y-228600D02*
X257218Y-237048D01*
X248769Y-228600D02*
X203200Y-228600D01*
D19*
X-63500Y-127000D03*
D18*
X-38100Y-127000D01*
D19*
X-38100Y-127000D03*
X114300Y-139700D03*
D18*
X152400Y-139700D01*
X165100Y-127000D01*
X203200Y-127000D01*
X215900Y317500D02*
X279400Y381000D01*
X215900Y317500D02*
X215900Y254000D01*
D19*
X215900Y254000D03*
X127000Y165100D03*
X76200Y101600D03*
D18*
X98044Y136144D02*
X127000Y165100D01*
X98044Y136144D02*
X85007Y136144D01*
X76200Y127337D01*
X76200Y101600D01*
X254000Y381000D02*
X279400Y406400D01*
X254000Y381000D02*
X215900Y381000D01*
X177800Y342900D01*
D19*
X177800Y342900D03*
X177800Y317500D03*
D18*
X152400Y292100D01*
X139700Y292100D01*
D19*
X139700Y292100D03*
X139700Y266700D03*
D18*
X114300Y241300D01*
X101600Y241300D01*
D19*
X101600Y241300D03*
X63500Y177800D03*
D18*
X63500Y114300D01*
D19*
X63500Y114300D03*
D18*
X-137414Y-200914D02*
X-190500Y-254000D01*
X-127000Y-23372D02*
X-127000Y-12700D01*
X-127000Y-23372D02*
X-137414Y-33786D01*
X-137414Y-200914D01*
X-152400Y-190500D02*
X-190500Y-228600D01*
X-152400Y-12700D02*
X-127000Y12700D01*
X-152400Y-12700D02*
X-152400Y-190500D01*
X174752Y352552D02*
X215900Y393700D01*
X174752Y352552D02*
X161102Y352552D01*
X151450Y342900D01*
X101600Y342900D01*
X88900Y330200D01*
X50800Y330200D01*
X38100Y342900D01*
D19*
X38100Y342900D03*
X12700Y342900D03*
D18*
X12700Y330200D01*
X0Y317500D01*
X-50800Y317500D01*
X-76200Y292100D01*
X-76200Y241300D01*
X-63500Y228600D01*
X-63500Y203200D01*
X-76200Y190500D01*
X-76200Y159230D01*
D19*
X-76200Y159230D03*
X-76200Y139700D03*
D18*
X-76200Y0D01*
X-112014Y-35814D01*
X-112014Y-99314D02*
X-127000Y-114300D01*
X-112014Y-99314D02*
X-112014Y-35814D01*
D19*
X-50800Y330200D03*
X-88900Y159230D03*
D18*
X-86614Y294386D02*
X-50800Y330200D01*
X-86614Y294386D02*
X-86614Y209693D01*
X-88900Y207407D01*
X-88900Y159230D01*
D19*
X-88900Y139700D03*
D18*
X-88900Y0D01*
X-127000Y-78228D02*
X-127000Y-88900D01*
X-127000Y-78228D02*
X-116586Y-67814D01*
X-116586Y-27686D01*
X-88900Y0D01*
X25400Y139700D02*
X38100Y139700D01*
X50800Y127000D01*
D19*
X50800Y127000D03*
D18*
X-165100Y-139700D02*
X-190500Y-165100D01*
X-165100Y-139700D02*
X-165100Y177800D01*
D19*
X-165100Y177800D03*
X-165100Y203200D03*
D18*
X-165100Y254000D01*
X-127000Y292100D01*
D19*
X-152400Y165100D03*
D18*
X-156972Y-156972D02*
X-190500Y-190500D01*
X-156972Y-156972D02*
X-156972Y-10806D01*
X-152400Y-6234D02*
X-152400Y165100D01*
X-152400Y-6234D02*
X-156972Y-10806D01*
D19*
X-152400Y190500D03*
D18*
X-152400Y241300D01*
X-127000Y266700D01*
X38100Y368300D02*
X63500Y393700D01*
X38100Y368300D02*
X-76200Y368300D01*
X-116586Y327914D01*
X-127000Y251972D02*
X-127000Y241300D01*
X-127000Y251972D02*
X-116586Y262386D01*
X-116586Y327914D01*
X50800Y355600D02*
X88900Y393700D01*
X50800Y355600D02*
X-76200Y355600D01*
X-112014Y319786D01*
X-127000Y226572D02*
X-127000Y215900D01*
X-112014Y241558D02*
X-112014Y319786D01*
X-112014Y241558D02*
X-127000Y226572D01*
X114300Y-25654D02*
X139700Y-254D01*
X114300Y-25654D02*
X114300Y-63500D01*
D19*
X114300Y-63500D03*
X76200Y-63500D03*
D18*
X55372Y-84328D01*
X55372Y-90794D01*
X50800Y-95366D02*
X50800Y-127000D01*
X50800Y-95366D02*
X55372Y-90794D01*
X50800Y-127000D02*
X38100Y-139700D01*
X25400Y-139700D01*
D19*
X63500Y-127000D03*
D18*
X114808Y-178308D01*
X139700Y-178308D01*
X38100Y-203200D02*
X25400Y-215900D01*
X38100Y-203200D02*
X215900Y-203200D01*
X254000Y-203200D01*
X279400Y-177800D01*
X279400Y-139700D01*
X292100Y-139700D01*
X313692Y-161292D01*
X313692Y-210890D02*
X258390Y-266192D01*
X250500Y-266192D02*
X238253Y-253945D01*
X313692Y-210890D02*
X313692Y-161292D01*
X258390Y-266192D02*
X250500Y-266192D01*
X228600Y-88900D02*
X228600Y25400D01*
D19*
X228600Y-88900D03*
X177800Y-88900D03*
D18*
X114300Y-88900D01*
D19*
X114300Y-88900D03*
X-25400Y50800D03*
D18*
X-25400Y139700D01*
D19*
X-25400Y139700D03*
D18*
X228600Y25400D02*
X279400Y76200D01*
X50800Y317500D02*
X25400Y342900D01*
X50800Y317500D02*
X50800Y304800D01*
D19*
X50800Y304800D03*
X127000Y241300D03*
D18*
X139700Y228600D01*
X139700Y215900D01*
D19*
X139700Y215900D03*
X165100Y215900D03*
D18*
X190500Y241300D01*
D19*
X190500Y241300D03*
X254000Y215900D03*
D18*
X266700Y203200D01*
X266700Y101600D01*
X279400Y88900D01*
X292100Y88900D01*
X304800Y76200D01*
X304800Y25400D01*
X292100Y12700D01*
X279400Y12700D01*
X25400Y241300D02*
X76200Y292100D01*
X101600Y292100D02*
X114300Y304800D01*
X101600Y292100D02*
X76200Y292100D01*
X200014Y168148D02*
X207198Y168148D01*
X222730Y260830D02*
X279400Y317500D01*
X200014Y168148D02*
X187314Y155448D01*
X130048Y155448D01*
X222730Y183680D02*
X222730Y260830D01*
X222730Y183680D02*
X207198Y168148D01*
X101600Y114046D02*
X88900Y101346D01*
X101600Y127000D02*
X130048Y155448D01*
X101600Y127000D02*
X101600Y114046D01*
X227302Y201902D02*
X279400Y254000D01*
X227302Y201902D02*
X227302Y181786D01*
X215900Y170384D02*
X215900Y63500D01*
X215900Y170384D02*
X227302Y181786D01*
X215900Y63500D02*
X203200Y50800D01*
X190500Y50800D01*
X165100Y25400D01*
X165100Y12700D01*
D19*
X165100Y12700D03*
X165100Y-12700D03*
D18*
X165100Y-51308D01*
X149296Y-67112D01*
X127571Y-67112D01*
D19*
X127571Y-67112D03*
D18*
X122170Y363470D02*
X68330Y363470D01*
D19*
X68330Y363470D03*
X-63500Y342900D03*
X-101600Y159230D03*
D18*
X-101600Y201172D01*
X-91186Y211586D01*
X-91186Y315214D01*
D19*
X-101600Y139700D03*
D18*
X-101600Y63500D01*
X-127000Y38100D01*
X-91186Y315214D02*
X-63500Y342900D01*
X122170Y363470D02*
X152400Y393700D01*
X109470Y376170D02*
X81030Y376170D01*
D19*
X81030Y376170D03*
X-76200Y342900D03*
D18*
X-101600Y317500D01*
X-101600Y241300D02*
X-114300Y228600D01*
X-114300Y165100D01*
D19*
X-114300Y165100D03*
X-114300Y139700D03*
D18*
X-114300Y101600D01*
X-127000Y88900D01*
X-101600Y241300D02*
X-101600Y317500D01*
X109470Y376170D02*
X127000Y393700D01*
M02*
