G04 EAGLE Gerber RS-274X export*
G75*
%MOMM*%
%FSLAX34Y34*%
%LPD*%
%INSoldermask Top*%
%IPPOS*%
%AMOC8*
5,1,8,0,0,1.08239X$1,22.5*%
G01*
%ADD10C,1.473200*%
%ADD11P,1.649562X8X292.500000*%
%ADD12C,1.676400*%
%ADD13C,1.727200*%
%ADD14R,1.853200X1.853200*%
%ADD15C,1.853200*%
%ADD16R,1.711200X1.711200*%
%ADD17C,1.711200*%
%ADD18C,0.959600*%


D10*
X139700Y-254D03*
X139700Y50546D03*
X139700Y75946D03*
X139700Y101346D03*
X139700Y126746D03*
X88900Y126746D03*
X88900Y101346D03*
X88900Y75946D03*
X88900Y50546D03*
X88900Y-254D03*
X139700Y-178308D03*
X139700Y-127508D03*
X139700Y-102108D03*
X139700Y-76708D03*
X139700Y-51308D03*
X88900Y-51308D03*
X88900Y-76708D03*
X88900Y-102108D03*
X88900Y-127508D03*
X88900Y-178308D03*
D11*
X76200Y241300D03*
X76200Y165100D03*
X165100Y342900D03*
X165100Y266700D03*
X165100Y241300D03*
X165100Y165100D03*
X76200Y342900D03*
X76200Y266700D03*
D12*
X25400Y-190500D03*
X25400Y-165100D03*
X25400Y-139700D03*
X25400Y-114300D03*
X25400Y-88900D03*
X25400Y-63500D03*
X25400Y-38100D03*
X25400Y-12700D03*
X25400Y12700D03*
X25400Y38100D03*
X25400Y63500D03*
X25400Y88900D03*
X-127000Y88900D03*
X-127000Y63500D03*
X-127000Y38100D03*
X-127000Y12700D03*
X-127000Y-12700D03*
X-127000Y-38100D03*
X-127000Y-63500D03*
X-127000Y-88900D03*
X-127000Y-114300D03*
X-127000Y-139700D03*
X-127000Y-165100D03*
X25400Y-215900D03*
X-127000Y-190500D03*
X-127000Y-215900D03*
X25400Y-241300D03*
X-127000Y-241300D03*
X25400Y114300D03*
X-127000Y114300D03*
X25400Y139700D03*
X25400Y165100D03*
X25400Y190500D03*
X25400Y215900D03*
X25400Y241300D03*
X25400Y266700D03*
X25400Y292100D03*
X25400Y317500D03*
X25400Y342900D03*
X-127000Y342900D03*
X-127000Y317500D03*
X-127000Y292100D03*
X-127000Y266700D03*
X-127000Y241300D03*
X-127000Y215900D03*
X-127000Y190500D03*
X-127000Y165100D03*
X-127000Y139700D03*
X0Y215900D03*
X-50800Y215900D03*
X-76200Y215900D03*
X-25400Y215900D03*
X-101600Y215900D03*
X-101600Y-215900D03*
X-101600Y-165100D03*
X-101600Y-139700D03*
X-101600Y-114300D03*
X-6350Y-177800D03*
X-6350Y-152400D03*
X-6350Y-127000D03*
X-6350Y-101600D03*
X-6350Y-76200D03*
D13*
X233184Y-248256D02*
X243322Y-259635D01*
X262287Y-242738D02*
X252149Y-231359D01*
X271113Y-214462D02*
X281251Y-225841D01*
X300216Y-208944D02*
X290078Y-197565D01*
D14*
X-190500Y317500D03*
D15*
X-190500Y342900D03*
D14*
X-190500Y0D03*
D15*
X-190500Y25400D03*
D11*
X203200Y177800D03*
X203200Y228600D03*
X203200Y203200D03*
X114300Y177800D03*
X114300Y228600D03*
X114300Y203200D03*
X114300Y279400D03*
X114300Y330200D03*
X114300Y304800D03*
X203200Y279400D03*
X203200Y330200D03*
X203200Y304800D03*
X203200Y152400D03*
X203200Y76200D03*
D14*
X279400Y381000D03*
D15*
X279400Y406400D03*
D14*
X127000Y393700D03*
D15*
X152400Y393700D03*
D14*
X-190500Y-228600D03*
D15*
X-190500Y-254000D03*
D14*
X190500Y393700D03*
D15*
X215900Y393700D03*
D14*
X279400Y190500D03*
D15*
X279400Y215900D03*
D14*
X-190500Y-165100D03*
D15*
X-190500Y-190500D03*
D14*
X63500Y393700D03*
D15*
X88900Y393700D03*
D14*
X279400Y342900D03*
D15*
X279400Y317500D03*
D14*
X279400Y279400D03*
D15*
X279400Y254000D03*
D14*
X279400Y-76200D03*
D15*
X279400Y-50800D03*
D14*
X279400Y-12700D03*
D15*
X279400Y12700D03*
D14*
X279400Y50800D03*
D15*
X279400Y76200D03*
D14*
X-190500Y63500D03*
D15*
X-190500Y88900D03*
D14*
X-190500Y-63500D03*
D15*
X-190500Y-38100D03*
D14*
X-190500Y-127000D03*
D15*
X-190500Y-101600D03*
D14*
X-190500Y254000D03*
D15*
X-190500Y279400D03*
D14*
X-190500Y190500D03*
D15*
X-190500Y215900D03*
D14*
X-190500Y381000D03*
D15*
X-190500Y406400D03*
X203200Y-12700D03*
X203200Y-38100D03*
D14*
X203200Y38100D03*
D15*
X203200Y12700D03*
D16*
X203200Y-76200D03*
D17*
X203200Y-101600D03*
X203200Y-127000D03*
X203200Y-152400D03*
D14*
X-190500Y127000D03*
D15*
X-190500Y152400D03*
D14*
X279400Y127000D03*
D15*
X279400Y152400D03*
D14*
X76200Y-241300D03*
D15*
X101600Y-241300D03*
D14*
X139700Y-241300D03*
D15*
X165100Y-241300D03*
D14*
X279400Y-139700D03*
D15*
X279400Y-114300D03*
D18*
X114300Y32230D03*
X114300Y-5870D03*
X127000Y-76200D03*
X254000Y-165100D03*
X152400Y-101600D03*
X50800Y-63500D03*
X63500Y-38100D03*
X63500Y18570D03*
X63500Y38100D03*
X71370Y84070D03*
X88900Y88900D03*
X152400Y-177800D03*
X203200Y-177800D03*
X216756Y38100D03*
X241300Y177800D03*
X127000Y25400D03*
X139700Y38100D03*
X50800Y63500D03*
X76200Y63500D03*
X76200Y38100D03*
X101600Y12700D03*
X177800Y-114300D03*
X190500Y-139700D03*
X177800Y-165100D03*
X76200Y0D03*
X76200Y-38100D03*
X165100Y-159230D03*
X165100Y-139700D03*
X190500Y-215900D03*
X-63500Y-127000D03*
X-38100Y-127000D03*
X114300Y-139700D03*
X215900Y254000D03*
X127000Y165100D03*
X76200Y101600D03*
X177800Y342900D03*
X177800Y317500D03*
X139700Y292100D03*
X139700Y266700D03*
X101600Y241300D03*
X63500Y177800D03*
X63500Y114300D03*
X38100Y342900D03*
X12700Y342900D03*
X-76200Y159230D03*
X-76200Y139700D03*
X-50800Y330200D03*
X-88900Y159230D03*
X-88900Y139700D03*
X50800Y127000D03*
X-165100Y177800D03*
X-165100Y203200D03*
X-152400Y165100D03*
X-152400Y190500D03*
X114300Y-63500D03*
X76200Y-63500D03*
X63500Y-127000D03*
X228600Y-88900D03*
X177800Y-88900D03*
X114300Y-88900D03*
X-25400Y50800D03*
X-25400Y139700D03*
X50800Y304800D03*
X127000Y241300D03*
X139700Y215900D03*
X165100Y215900D03*
X190500Y241300D03*
X254000Y215900D03*
X165100Y12700D03*
X165100Y-12700D03*
X127571Y-67112D03*
X68330Y363470D03*
X-63500Y342900D03*
X-101600Y159230D03*
X-101600Y139700D03*
X81030Y376170D03*
X-76200Y342900D03*
X-114300Y165100D03*
X-114300Y139700D03*
M02*
