M48
;GenerationSoftware,Autodesk,EAGLE,9.4.2*%
;CreationDate,2019-11-11T02:37:50Z*%
FMAT,2
ICI,OFF
METRIC,TZ,000.000
T10C0.350
T9C0.762
T8C0.813
T7C0.914
T6C0.965
T5C1.000
T4C1.016
T3C1.100
T2C1.118
T1C2.000
%
G90
M71
T1
X-21717Y1016
X-21717Y21844
X1397Y1016
X1397Y21844
T2
X-7620Y34290
X-19050Y44450
X-19050Y34290
X-15240Y44450
X-15240Y34290
X-11430Y34290
X-11430Y44450
X-7620Y44450
T3
X-3810Y29210
X-7620Y29210
X-10160Y29210
X-20320Y29210
X-22860Y29210
X30480Y58420
X30480Y55880
X34290Y38100
X30480Y53340
X30480Y50800
X34290Y34290
X-13970Y29210
X-16510Y29210
X-1270Y29210
X36830Y53340
X34290Y40640
X34290Y44450
X34290Y46990
X36830Y59690
X36830Y57150
X34290Y25400
X36830Y50800
X34290Y15240
X34290Y12700
X34290Y21590
X34290Y19050
X34290Y6350
X34290Y8890
X34290Y27940
X34290Y31750
X34290Y2540
X34290Y0
T4
X7582Y12700
X7582Y15240
X7582Y20320
X7582Y22860
X7582Y25400
X7582Y27940
X7582Y30480
X7620Y41910
X7620Y49530
X7620Y46990
X2540Y44450
X7582Y17780
X2540Y46990
X2540Y41910
X7620Y44450
X2540Y49530
T5
X2540Y15240
X2540Y10160
X2540Y7620
X2540Y12700
T6
X26670Y50800
X26670Y53340
X26670Y55880
X26670Y58420
X11430Y58420
X11430Y55880
X11430Y53340
X11430Y50800
X11430Y48260
X11430Y45720
X11430Y43180
X11430Y38100
X24130Y45720
X19050Y45720
X16510Y45720
X21590Y45720
X13970Y45720
X13970Y2540
X13970Y7620
X13970Y10160
X13970Y12700
X23495Y6350
X23495Y8890
X23495Y11430
X23495Y13970
X23495Y16510
X11430Y15240
X26670Y5080
X26670Y7620
X26670Y10160
X26670Y12700
X26670Y15240
X26670Y17780
X26670Y20320
X26670Y22860
X26670Y25400
X26670Y27940
X26670Y30480
X26670Y33020
X11430Y33020
X11430Y30480
X11430Y27940
X11430Y25400
X11430Y22860
X11430Y20320
X11430Y17780
X11430Y40640
X11430Y12700
X11430Y10160
X11430Y7620
X26670Y2540
X11430Y5080
X11430Y2540
X26670Y0
X11430Y0
X26670Y35560
X11430Y35560
X26670Y38100
X26670Y40640
X26670Y43180
X26670Y45720
X26670Y48260
T7
X-24130Y35560
X-21590Y35560
X6350Y35560
X8890Y35560
X-24130Y41910
X-21590Y41910
X3810Y35560
X1270Y35560
T8
X8890Y53340
X1270Y60960
X1270Y58420
X8890Y58420
X-22860Y58420
X-2540Y34290
X-22860Y48260
X-22860Y55880
X-22860Y60960
X-2540Y59690
X-2540Y57150
X-2540Y62230
X-2540Y36830
X-2540Y39370
X-2540Y44450
X-2540Y41910
X-2540Y46990
X-2540Y52070
X-2540Y49530
X-2540Y54610
X8890Y60960
X1270Y55880
X8890Y55880
X1270Y53340
T9
X-8915Y57150
X-8915Y62230
X-6375Y62230
X-6375Y57150
X-11455Y57150
X-19075Y57150
X-11379Y48260
X-13919Y48260
X-16459Y48260
X-18999Y48260
X-18999Y53340
X-16459Y53340
X-13919Y53340
X-11379Y53340
X-6299Y53340
X-13995Y57150
X-19075Y62230
X-13995Y62230
X-11455Y62230
X-6299Y48260
T10
X6350Y33020
X-8915Y62230
X-16510Y52070
X-19050Y45720
X-16510Y45720
X0Y40640
X7620Y8890
X6350Y40617
X3810Y43203
X5080Y50800
X6350Y52753
X21590Y50800
X22860Y54610
X15240Y52070
X10160Y11430
X5080Y38100
X-1270Y45720
X2540Y54610
X16510Y49530
X12700Y54610
X3810Y52070
X15240Y39370
X1270Y52070
X-10160Y59690
X-10160Y62230
X-20419Y44450
X29210Y39370
X22860Y44450
X16510Y46990
X21590Y52070
X20320Y53340
X10160Y52070
X10160Y57150
X27940Y13970
X25400Y6350
X20320Y5080
X27940Y26670
X24130Y26670
X22860Y33020
X17780Y33020
X8890Y2540
X8890Y7620
X13970Y54610
M30