G04 EAGLE Gerber RS-274X export*
G75*
%MOMM*%
%FSLAX34Y34*%
%LPD*%
%INTop Copper*%
%IPPOS*%
%AMOC8*
5,1,8,0,0,1.08239X$1,22.5*%
G01*
%ADD10C,1.422400*%
%ADD11C,1.270000*%
%ADD12C,1.676400*%
%ADD13P,1.429621X8X202.500000*%
%ADD14C,1.473200*%
%ADD15C,1.524000*%
%ADD16C,1.879600*%
%ADD17R,1.650000X1.650000*%
%ADD18C,1.650000*%
%ADD19P,1.429621X8X112.500000*%
%ADD20R,1.508000X1.508000*%
%ADD21C,1.508000*%
%ADD22P,1.429621X8X292.500000*%
%ADD23C,0.304800*%
%ADD24C,0.756400*%
%ADD25C,0.304800*%


D10*
X63500Y348488D02*
X63500Y362712D01*
X88900Y362712D02*
X88900Y348488D01*
X-241300Y411988D02*
X-241300Y426212D01*
X-215900Y426212D02*
X-215900Y411988D01*
D11*
X-190754Y571500D03*
X-139954Y571500D03*
X-114554Y571500D03*
X-89154Y571500D03*
X-63754Y571500D03*
X-63754Y622300D03*
X-89154Y622300D03*
X-114554Y622300D03*
X-139954Y622300D03*
X-190754Y622300D03*
D12*
X-114300Y444500D03*
X-114300Y342900D03*
X-76200Y444500D03*
X-76200Y342900D03*
X-190500Y444500D03*
X-190500Y342900D03*
X-152400Y444500D03*
X-152400Y342900D03*
D10*
X-241300Y348488D02*
X-241300Y362712D01*
X-215900Y362712D02*
X-215900Y348488D01*
D11*
X-62992Y533400D03*
X-113792Y533400D03*
X-139192Y533400D03*
X-164592Y533400D03*
X-189992Y533400D03*
X-189992Y482600D03*
X-164592Y482600D03*
X-139192Y482600D03*
X-113792Y482600D03*
X-62992Y482600D03*
D13*
X88900Y584200D03*
X12700Y584200D03*
X88900Y609600D03*
X12700Y609600D03*
X88900Y533400D03*
X12700Y533400D03*
X88900Y558800D03*
X12700Y558800D03*
D10*
X12700Y362712D02*
X12700Y348488D01*
X38100Y348488D02*
X38100Y362712D01*
D14*
X266700Y50800D03*
X266700Y76200D03*
X266700Y101600D03*
X266700Y127000D03*
X266700Y152400D03*
X266700Y177800D03*
X266700Y203200D03*
X266700Y228600D03*
X266700Y254000D03*
X266700Y279400D03*
X266700Y304800D03*
X266700Y330200D03*
X114300Y330200D03*
X114300Y304800D03*
X114300Y279400D03*
X114300Y254000D03*
X114300Y228600D03*
X114300Y203200D03*
X114300Y177800D03*
X114300Y152400D03*
X114300Y127000D03*
X114300Y101600D03*
X114300Y76200D03*
X266700Y25400D03*
X114300Y50800D03*
X114300Y25400D03*
X266700Y0D03*
X114300Y0D03*
X266700Y355600D03*
X114300Y355600D03*
X266700Y381000D03*
X266700Y406400D03*
X266700Y431800D03*
X266700Y457200D03*
X266700Y482600D03*
X266700Y508000D03*
X266700Y533400D03*
X266700Y558800D03*
X266700Y584200D03*
X114300Y584200D03*
X114300Y558800D03*
X114300Y533400D03*
X114300Y508000D03*
X114300Y482600D03*
X114300Y457200D03*
X114300Y431800D03*
X114300Y406400D03*
X114300Y381000D03*
X241300Y457200D03*
X190500Y457200D03*
X165100Y457200D03*
X215900Y457200D03*
X139700Y457200D03*
X139700Y25400D03*
X139700Y76200D03*
X139700Y101600D03*
X139700Y127000D03*
X234950Y63500D03*
X234950Y88900D03*
X234950Y114300D03*
X234950Y139700D03*
X234950Y165100D03*
D15*
X33020Y495300D02*
X17780Y495300D01*
X17780Y469900D02*
X33020Y469900D01*
X33020Y444500D02*
X17780Y444500D01*
X17780Y419100D02*
X33020Y419100D01*
X68580Y495300D02*
X83820Y495300D01*
X83820Y469900D02*
X68580Y469900D01*
X68580Y444500D02*
X83820Y444500D01*
X83820Y419100D02*
X68580Y419100D01*
D16*
X75819Y304800D03*
X75819Y279400D03*
X75819Y254000D03*
X75819Y228600D03*
X75819Y203200D03*
X75819Y177800D03*
X75819Y152400D03*
X75819Y127000D03*
D17*
X-228600Y292100D03*
D18*
X-203200Y292100D03*
D17*
X-101600Y292100D03*
D18*
X-76200Y292100D03*
D17*
X-38100Y292100D03*
D18*
X-12700Y292100D03*
D17*
X-165100Y292100D03*
D18*
X-139700Y292100D03*
D19*
X-25400Y546100D03*
X-25400Y495300D03*
X-25400Y520700D03*
X-25400Y469900D03*
X-25400Y419100D03*
X-25400Y444500D03*
X-25400Y393700D03*
X-25400Y342900D03*
X-25400Y368300D03*
X-25400Y622300D03*
X-25400Y571500D03*
X-25400Y596900D03*
D20*
X25400Y76200D03*
D21*
X25400Y101600D03*
X25400Y127000D03*
X25400Y152400D03*
D19*
X-228600Y584200D03*
X-228600Y609600D03*
D22*
X-228600Y558800D03*
X-228600Y482600D03*
D17*
X304800Y508000D03*
D18*
X304800Y533400D03*
D17*
X304800Y558800D03*
D18*
X304800Y584200D03*
D17*
X330200Y317500D03*
D18*
X330200Y342900D03*
D17*
X330200Y152400D03*
D18*
X330200Y127000D03*
D17*
X330200Y88900D03*
D18*
X330200Y63500D03*
D17*
X330200Y25400D03*
D18*
X330200Y0D03*
D17*
X330200Y381000D03*
D18*
X330200Y406400D03*
D17*
X330200Y444500D03*
D18*
X330200Y469900D03*
D17*
X330200Y279400D03*
D18*
X330200Y254000D03*
D17*
X330200Y215900D03*
D18*
X330200Y190500D03*
D23*
X55372Y419899D02*
X55372Y423672D01*
X55372Y419899D02*
X39986Y404514D01*
X55372Y423672D02*
X76200Y444500D01*
X39986Y404514D02*
X39986Y391814D01*
X50800Y381000D01*
D24*
X50800Y381000D03*
X63500Y330200D03*
D23*
X75819Y317881D01*
X75819Y304800D01*
D24*
X-89154Y622300D03*
D23*
X-127000Y584454D01*
X-127000Y520700D01*
X-165100Y520700D01*
D24*
X-165100Y520700D03*
X152400Y266700D03*
D23*
X57630Y266700D01*
D24*
X57630Y266700D03*
X-76200Y266700D03*
D23*
X-88900Y279400D01*
X-88900Y330200D01*
D24*
X-88900Y330200D03*
X-88900Y368300D03*
D23*
X-88900Y393700D01*
D24*
X-88900Y393700D03*
D23*
X-152400Y444500D02*
X-164592Y444500D01*
X-189992Y469900D01*
X-189992Y482600D01*
D24*
X177800Y317500D03*
D23*
X88900Y317500D01*
D24*
X88900Y317500D03*
X38100Y317500D03*
D23*
X12700Y317500D01*
X0Y330200D01*
D24*
X0Y330200D03*
X-204188Y444500D03*
D23*
X-193885Y491998D02*
X-193802Y491998D01*
X-190500Y495300D01*
X-177292Y495300D01*
X-164592Y482600D01*
X-193885Y491998D02*
X-204188Y481695D01*
X-204188Y444500D01*
X-25400Y622300D02*
X0Y622300D01*
X12700Y609600D01*
X12700Y584200D01*
X12700Y558800D01*
X12700Y533400D01*
X-12700Y558800D02*
X-25400Y546100D01*
X-12700Y558800D02*
X12700Y558800D01*
X12700Y533400D02*
X25400Y520700D01*
X25400Y495300D01*
X0Y469900D01*
X-25400Y469900D01*
X-38100Y457200D01*
X-38100Y406400D01*
X-25400Y393700D01*
X25400Y112026D02*
X25400Y101600D01*
X25400Y112026D02*
X35988Y122614D01*
X35988Y230712D01*
X0Y266700D02*
X0Y304800D01*
X-25400Y330200D01*
X-63500Y330200D01*
X0Y266700D02*
X35988Y230712D01*
X-101600Y622300D02*
X-114554Y622300D01*
D24*
X-101600Y622300D03*
X-101600Y596900D03*
D23*
X-89154Y596900D01*
X-63754Y571500D01*
X-76200Y342900D02*
X-114300Y342900D01*
X-139192Y482600D02*
X-113792Y508000D01*
X-88392Y508000D02*
X-63246Y533146D01*
X-62992Y533400D01*
X-88392Y508000D02*
X-113792Y508000D01*
X-139192Y482600D02*
X-189992Y533400D01*
X-189992Y570738D01*
X-190500Y342900D02*
X-152400Y342900D01*
X-63246Y570992D02*
X-63754Y571500D01*
X-63246Y570992D02*
X-63246Y533146D01*
X-62992Y533400D02*
X-50292Y546100D01*
X-25400Y546100D01*
X-203200Y330200D02*
X-203200Y292100D01*
X-203200Y330200D02*
X-190500Y342900D01*
X59292Y372872D02*
X67708Y372872D01*
X42020Y355600D02*
X38100Y355600D01*
X84980Y355600D02*
X88900Y355600D01*
X59292Y372872D02*
X42020Y355600D01*
X67708Y372872D02*
X84980Y355600D01*
X12700Y520700D02*
X-25400Y520700D01*
D24*
X12700Y520700D03*
X38100Y520700D03*
D23*
X76200Y520700D01*
X88900Y533400D01*
X101600Y520700D01*
D24*
X101600Y520700D03*
X165100Y495300D03*
D23*
X254000Y495300D01*
X266700Y508000D01*
X101600Y596900D02*
X88900Y584200D01*
X203200Y596900D02*
X266700Y533400D01*
X203200Y596900D02*
X101600Y596900D01*
X88900Y584200D02*
X50800Y546100D01*
X25400Y546100D01*
D24*
X25400Y546100D03*
X-12700Y457200D03*
D23*
X-25400Y444500D01*
X63500Y533400D02*
X88900Y558800D01*
X63500Y533400D02*
X63500Y527530D01*
D24*
X63500Y527530D03*
X50800Y508000D03*
D23*
X37439Y408432D02*
X25400Y408432D01*
X37439Y408432D02*
X50800Y421793D01*
X50800Y508000D01*
X25400Y408432D02*
X-14732Y368300D01*
X-25400Y368300D01*
X88900Y609600D02*
X241300Y609600D01*
X266700Y584200D01*
X114300Y101600D02*
X114300Y88900D01*
X118614Y86614D02*
X124714Y80514D01*
X124714Y-4314D02*
X118614Y-10414D01*
X109986Y-10414D01*
X116586Y86614D02*
X114300Y88900D01*
X116586Y86614D02*
X118614Y86614D01*
X104110Y-4538D02*
X109986Y-10414D01*
X104110Y-4538D02*
X29938Y-4538D01*
X124714Y-4314D02*
X124714Y80514D01*
X29938Y-4538D02*
X23588Y-10888D01*
X-253492Y457708D02*
X-228600Y482600D01*
X23588Y-10888D02*
X22952Y-11524D01*
X-13876Y-11524D01*
X-38100Y12700D01*
X-38100Y228600D01*
X-50800Y241300D01*
X-241300Y241300D02*
X-253492Y253492D01*
X-241300Y241300D02*
X-50800Y241300D01*
X-253492Y253492D02*
X-253492Y457708D01*
X25400Y444500D02*
X25626Y444500D01*
X38100Y432026D01*
D24*
X38100Y432026D03*
X63500Y406174D03*
D23*
X101374Y368300D01*
X152400Y368300D02*
X266700Y254000D01*
X152400Y368300D02*
X101374Y368300D01*
X0Y444500D02*
X25400Y469900D01*
X0Y444500D02*
X0Y406400D01*
D24*
X0Y406400D03*
X152400Y393700D03*
D23*
X266700Y279400D01*
X127000Y546100D02*
X114300Y558800D01*
D24*
X127000Y546100D03*
X152400Y520700D03*
D23*
X152400Y482600D01*
X139700Y469900D01*
X76200Y469900D01*
X76200Y495300D02*
X127000Y495300D01*
X145570Y513870D01*
X152400Y530359D02*
X152400Y546100D01*
X145570Y523529D02*
X145570Y513870D01*
X145570Y523529D02*
X152400Y530359D01*
X152400Y546100D02*
X114300Y584200D01*
X75819Y228600D02*
X88519Y215900D01*
X165100Y215900D02*
X215900Y165100D01*
X215900Y50800D01*
X241300Y25400D01*
X266700Y25400D01*
X165100Y215900D02*
X88519Y215900D01*
X38100Y330200D02*
X12700Y355600D01*
X38100Y330200D02*
X50800Y317500D01*
X50800Y114300D01*
X63500Y101600D01*
X76200Y101600D01*
X101600Y76200D02*
X101600Y12700D01*
X114300Y0D01*
X101600Y76200D02*
X76200Y101600D01*
D25*
X38100Y330200D03*
D24*
X228600Y546100D03*
D23*
X228600Y520700D01*
X215900Y508000D01*
D24*
X215900Y508000D03*
D23*
X25400Y127000D02*
X12700Y114300D01*
X12700Y63500D01*
X25400Y50800D01*
X38100Y50800D01*
X76200Y88900D01*
D24*
X76200Y88900D03*
D23*
X25400Y152400D02*
X0Y127000D01*
X0Y63500D01*
X25400Y38100D01*
X50800Y38100D02*
X88900Y76200D01*
D24*
X88900Y76200D03*
X101600Y114300D03*
D23*
X101600Y190500D01*
X114300Y203200D01*
X50800Y38100D02*
X25400Y38100D01*
X-50800Y266700D02*
X-76200Y292100D01*
X-50800Y266700D02*
X-38100Y266700D01*
X-12700Y241300D01*
X-12700Y38100D01*
D24*
X88900Y25400D03*
D23*
X29396Y25400D02*
X22952Y31844D01*
X29396Y25400D02*
X88900Y25400D01*
X-6444Y31844D02*
X-12700Y38100D01*
X-6444Y31844D02*
X22952Y31844D01*
X-228600Y558800D02*
X-228600Y584200D01*
X114300Y330200D02*
X177800Y330200D01*
D24*
X177800Y330200D03*
X279400Y241300D03*
D23*
X317500Y203200D01*
X317500Y139700D01*
X330200Y127000D01*
X241300Y228600D02*
X114300Y228600D01*
X241300Y228600D02*
X254000Y215900D01*
X264672Y165100D02*
X279400Y165100D01*
X292100Y152400D01*
X292100Y76200D01*
X304800Y63500D01*
X330200Y63500D01*
X254000Y175772D02*
X254000Y215900D01*
X254000Y175772D02*
X264672Y165100D01*
X228600Y254000D02*
X114300Y254000D01*
X256286Y226314D02*
X256286Y224286D01*
X256286Y226314D02*
X228600Y254000D01*
X266958Y213614D02*
X271014Y213614D01*
X304800Y179828D01*
X304800Y101600D01*
X317500Y88900D01*
X330200Y88900D01*
X266958Y213614D02*
X256286Y224286D01*
X124972Y127000D02*
X114300Y127000D01*
X150114Y116586D02*
X190500Y76200D01*
X135386Y116586D02*
X124972Y127000D01*
X135386Y116586D02*
X150114Y116586D01*
X190500Y76200D02*
X190500Y63500D01*
X317500Y0D02*
X330200Y0D01*
X304800Y12700D02*
X241300Y12700D01*
X304800Y12700D02*
X317500Y0D01*
X241300Y12700D02*
X190500Y63500D01*
D24*
X279400Y139700D03*
D23*
X279400Y38100D01*
X292100Y25400D01*
X330200Y25400D01*
X330200Y381000D02*
X266700Y381000D01*
X266700Y406400D02*
X330200Y406400D01*
X279400Y444500D02*
X266700Y431800D01*
X279400Y444500D02*
X330200Y444500D01*
X279400Y469900D02*
X266700Y457200D01*
X279400Y469900D02*
X330200Y469900D01*
X114300Y533400D02*
X101600Y546100D01*
X101600Y571500D01*
D24*
X101600Y571500D03*
X355600Y381000D03*
D23*
X355600Y304800D01*
X330200Y279400D01*
X114300Y508000D02*
X114300Y520700D01*
D24*
X139700Y546100D03*
D23*
X116586Y522986D02*
X114300Y520700D01*
X116586Y522986D02*
X118614Y522986D01*
X124714Y529086D01*
X124714Y531114D01*
X139700Y546100D01*
D24*
X203200Y533400D03*
D23*
X215900Y520700D01*
D24*
X215900Y520700D03*
X317500Y355600D03*
D23*
X317500Y266700D01*
X330200Y254000D01*
D24*
X165100Y469900D03*
D23*
X167386Y467614D01*
X169414Y467614D01*
X180086Y456942D01*
X180086Y452886D01*
X264672Y368300D02*
X279400Y368300D01*
X304800Y342900D01*
X264672Y368300D02*
X180086Y452886D01*
X304800Y342900D02*
X304800Y241300D01*
X330200Y215900D01*
X127000Y444500D02*
X114300Y457200D01*
X127000Y444500D02*
X127000Y431800D01*
X215900Y342900D02*
X279400Y342900D01*
X292100Y330200D01*
X215900Y342900D02*
X127000Y431800D01*
X292100Y330200D02*
X292100Y241300D01*
D24*
X292100Y241300D03*
D23*
X-114300Y444500D02*
X-127000Y457200D01*
X-127000Y482600D01*
D24*
X-127000Y482600D03*
X25400Y292100D03*
D23*
X-12700Y330200D01*
X-38100Y368300D02*
X-50800Y368300D01*
X-35052Y364302D02*
X-29398Y358648D01*
X-35052Y364302D02*
X-35052Y365252D01*
X-38100Y368300D01*
X-27498Y358648D02*
X-12700Y343850D01*
X-27498Y358648D02*
X-29398Y358648D01*
X-50800Y368300D02*
X-114300Y431800D01*
X-114300Y444500D01*
X-12700Y343850D02*
X-12700Y330200D01*
D24*
X165100Y292100D03*
D23*
X152400Y292100D01*
X139700Y304800D01*
D24*
X139700Y304800D03*
X139700Y381000D03*
X101600Y457200D03*
D23*
X124714Y395986D02*
X139700Y381000D01*
X124714Y395986D02*
X109986Y395986D01*
X101600Y404372D01*
X101600Y457200D01*
D24*
X0Y482600D03*
D23*
X-62992Y482600D01*
M02*
