M48
;GenerationSoftware,Autodesk,EAGLE,9.4.2*%
;CreationDate,2019-11-12T03:08:18Z*%
FMAT,2
ICI,OFF
METRIC,TZ,000.000
T10C0.350
T9C0.762
T8C0.813
T7C0.914
T6C0.965
T5C1.000
T4C1.016
T3C1.100
T2C1.118
T1C2.000
%
G90
M71
T1
X1397Y21844
X-21717Y21844
X1397Y1016
X-21717Y1016
T2
X-11430Y34290
X-7620Y44450
X-7620Y34290
X-11430Y44450
X-19050Y44450
X-19050Y34290
X-15240Y44450
X-15240Y34290
T3
X33020Y34290
X33020Y31750
X30480Y58420
X30480Y55880
X30480Y53340
X30480Y50800
X33020Y6350
X33020Y8890
X33020Y12700
X-13970Y29210
X-16510Y29210
X-1270Y29210
X33020Y15240
X-3810Y29210
X-7620Y29210
X-10160Y29210
X-20320Y29210
X-22860Y29210
X33020Y19050
X33020Y21590
X33020Y25400
X33020Y27940
X33020Y46990
X33020Y44450
X33020Y40640
X33020Y38100
X33020Y0
X33020Y2540
T4
X7582Y17780
X7582Y20320
X7582Y22860
X7582Y25400
X7582Y27940
X7582Y30480
X7582Y15240
X7620Y44450
X7620Y46990
X7620Y49530
X2540Y41910
X7582Y12700
X2540Y44450
X7620Y41910
X2540Y49530
X2540Y46990
T5
X2540Y12700
X2540Y10160
X2540Y7620
X2540Y15240
T6
X11430Y15240
X11430Y12700
X11430Y10160
X11430Y7620
X26670Y2540
X11430Y5080
X11430Y2540
X26670Y0
X11430Y0
X26670Y35560
X11430Y35560
X26670Y38100
X26670Y40640
X26670Y43180
X26670Y45720
X26670Y48260
X26670Y50800
X26670Y53340
X26670Y55880
X26670Y58420
X11430Y55880
X11430Y53340
X11430Y50800
X11430Y48260
X11430Y45720
X11430Y43180
X11430Y40640
X11430Y38100
X24130Y45720
X19050Y45720
X16510Y45720
X21590Y45720
X13970Y45720
X13970Y2540
X13970Y7620
X13970Y10160
X13970Y12700
X23495Y6350
X23495Y8890
X23495Y11430
X23495Y13970
X23495Y16510
X26670Y33020
X26670Y5080
X26670Y7620
X26670Y10160
X26670Y12700
X26670Y15240
X26670Y17780
X26670Y20320
X26670Y22860
X26670Y25400
X26670Y27940
X26670Y30480
X11430Y58420
X11430Y33020
X11430Y30480
X11430Y27940
X11430Y25400
X11430Y22860
X11430Y20320
X11430Y17780
T7
X-24130Y35560
X-21590Y35560
X3810Y35560
X1270Y35560
X8890Y35560
X-24130Y41910
X-21590Y41910
X6350Y35560
T8
X-2540Y39370
X-2540Y44450
X-2540Y41910
X-2540Y46990
X-2540Y52070
X-2540Y49530
X-2540Y54610
X1270Y58420
X8890Y58420
X-2540Y59690
X1270Y55880
X8890Y55880
X1270Y53340
X8890Y53340
X1270Y60960
X8890Y60960
X-22860Y48260
X-22860Y55880
X-22860Y60960
X-22860Y58420
X-2540Y57150
X-2540Y62230
X-2540Y36830
X-2540Y34290
T9
X-16459Y53340
X-11455Y62230
X-11379Y48260
X-13919Y48260
X-16459Y48260
X-18999Y48260
X-18999Y53340
X-13919Y53340
X-11379Y53340
X-6299Y53340
X-19075Y62230
X-13995Y62230
X-8915Y62230
X-6375Y57150
X-8915Y57150
X-11455Y57150
X-13995Y57150
X-19075Y57150
X-6375Y62230
X-6299Y48260
T10
X6350Y33020
X-8915Y62230
X-16510Y52070
X15240Y26670
X5763Y26670
X-7620Y26670
X-8890Y33020
X-8890Y36830
X-8890Y39370
X17780Y31750
X8890Y31750
X3810Y31750
X0Y33020
X-10160Y62230
X-10160Y59690
X1270Y52070
X3810Y52070
X10160Y52070
X16510Y49530
X8890Y2540
X10160Y11430
X8890Y7620
X7620Y8890
X21590Y50800
X22860Y54610
X15240Y52070
X5080Y38100
X20320Y53340
X12700Y54610
X35560Y38100
X13970Y54610
X0Y40640
X6350Y40617
X3810Y43203
X5080Y50800
X10160Y57150
X27940Y13970
X27940Y24130
X6350Y52753
X-1270Y45720
X2540Y54610
X-20419Y44450
X15240Y39370
X0Y48260
X10160Y45720
X13970Y38100
X13970Y30480
X16510Y29210
X2540Y29210
X-12700Y48260
X29210Y24130
X16510Y46990
X31750Y35560
X21590Y52070
X17780Y33020
M30