M48
;GenerationSoftware,Autodesk,EAGLE,9.4.2*%
;CreationDate,2020-01-10T20:13:12Z*%
FMAT,2
ICI,OFF
METRIC,TZ,000.000
T7C0.350
T6C0.762
T5C0.813
T4C0.965
T3C1.000
T2C1.016
T1C1.100
%
G90
M71
T1
X-19050Y40640
X-19050Y38100
X-19050Y21590
X-19050Y19050
X-19050Y27940
X-19050Y25400
X-19050Y-10160
X-19050Y-12700
X-19050Y-3810
X-19050Y-6350
X-19050Y8890
X-19050Y6350
X27940Y5080
X27940Y1270
X27940Y-1270
X27940Y-5080
X27940Y-7620
X27940Y25400
X27940Y27940
X27940Y31750
X27940Y34290
X8890Y39370
X6350Y39370
X-19050Y-19050
X-19050Y-16510
X27940Y21590
X27940Y19050
X21590Y39370
X19050Y39370
X-19050Y-25400
X27940Y-11430
X-19050Y2540
X-19050Y-22860
X15240Y39370
X12700Y39370
X27940Y40640
X27940Y38100
X27940Y7620
X-19050Y0
X-19050Y34290
X-19050Y31750
X27940Y-13970
X16510Y-24130
X13970Y-24130
X10160Y-24130
X7620Y-24130
X27940Y15240
X27940Y12700
X-19050Y15240
X-19050Y12700
X20320Y-1270
X20320Y1270
X20320Y3810
X20320Y-3810
T2
X29515Y-20325
X27618Y-22015
X25722Y-23705
X23825Y-25395
T3
X20320Y-12700
X20320Y-10160
X20320Y-7620
X20320Y-15240
T4
X-12700Y-3810
X-12700Y-6350
X-12700Y-8890
X-12700Y-11430
X-12700Y-13970
X-12700Y-16510
X2540Y-21590
X-12700Y-19050
X-12700Y-21590
X2540Y-24130
X-12700Y-24130
X2540Y11430
X-12700Y11430
X2540Y13970
X2540Y16510
X2540Y19050
X2540Y21590
X2540Y24130
X2540Y26670
X2540Y29210
X2540Y31750
X2540Y34290
X-12700Y34290
X-12700Y31750
X-12700Y29210
X-12700Y26670
X-12700Y24130
X-12700Y21590
X-12700Y16510
X-12700Y13970
X0Y21590
X-5080Y21590
X-7620Y21590
X-2540Y21590
X-10160Y21590
X-10160Y-21590
X-10160Y-16510
X-10160Y-13970
X-10160Y-11430
X-635Y-17780
X-635Y-15240
X-635Y-12700
X-635Y-10160
X-635Y-7620
X-12700Y1270
X2540Y-19050
X2540Y-16510
X2540Y-13970
X2540Y-11430
X2540Y-8890
X2540Y-6350
X2540Y-3810
X2540Y-1270
X2540Y1270
X2540Y3810
X2540Y6350
X2540Y8890
X-12700Y8890
X-12700Y6350
X-12700Y3810
X-12700Y19050
X-12700Y-1270
T5
X16510Y26670
X16510Y34290
X7620Y16510
X7620Y24130
X20320Y17780
X20320Y22860
X20320Y20320
X11430Y17780
X11430Y22860
X11430Y20320
X11430Y27940
X20320Y7620
X7620Y26670
X7620Y34290
X16510Y16510
X11430Y33020
X16510Y24130
X11430Y30480
X20320Y27940
X20320Y33020
X20320Y30480
X20320Y15240
T6
X13970Y-7671
X8890Y-17831
X8890Y-10211
X8890Y-7671
X8890Y-5131
X13970Y-5131
X13970Y-10211
X13970Y-12751
X13970Y-17831
X8890Y-12751
X8890Y5055
X8890Y7595
X8890Y10135
X8890Y12675
X8890Y-25
X13970Y10135
X13970Y7595
X13970Y5055
X13970Y-25
X13970Y12675
T7
X16510Y-15923
X16510Y-13970
X19050Y-21590
X-6350Y-12700
X11430Y-13970
X21590Y25400
X12700Y16510
X7620Y10160
X17780Y34290
X17780Y31750
X13970Y29210
X13970Y26670
X10160Y24130
X6350Y17780
X6350Y11430
X3810Y34290
X1270Y34290
X-7620Y15923
X12700Y2540
X11430Y3223
X11430Y-587
X12700Y-7620
X25400Y-16510
X15240Y-10160
X5080Y-6350
X6350Y-3810
X6350Y1857
X6350Y3810
X7137Y8407
X8890Y8890
X15240Y-17780
X20320Y-17780
X21676Y3810
X24130Y17780
X13970Y3810
X5080Y6350
X7620Y6350
X7620Y3810
X10160Y1270
X17780Y-11430
X19050Y-13970
X17780Y-16510
X7620Y0
X-11430Y13970
X-11430Y16510
X-7620Y34290
X8103Y37617
X-10160Y13970
X7620Y-3810
X-10160Y15923
X-6350Y34290
X6833Y36347
X12757Y-6711
X16510Y-1270
X16510Y1270
X25400Y21590
X19050Y24130
X16510Y21590
X13970Y21590
X12700Y24130
X5080Y30480
X-2540Y13970
X-2540Y5080
X-3810Y-12700
X17780Y-8890
X22860Y-8890
X6350Y-12700
X7620Y-6350
X11430Y-6350
X-15240Y19050
X-15240Y16510
X-16510Y20320
X-16510Y17780
X5080Y12700
X-8890Y13970
X-8890Y15923
X-5080Y33020
X-7620Y13970
X11430Y-8890
M30